<?xml version="1.0" encoding="UTF-8"?><svg id="ls_logo" xmlns="http://www.w3.org/2000/svg" viewBox="0 0 32.9 17.71"><defs><style>.cls-1{fill:#fff;}</style></defs><g id="Layer_3"><g><path class="ls_logo" d="M29.31,10.53h-3.05l2.71,2.71H14.66c-.65-.19-1.18-.77-1.41-1.52h5.47v-.82c0-2.23-1.62-4.04-3.61-4.04s-3.61,1.81-3.61,4.04c0,.87,.25,1.68,.67,2.34h-2.56V6.74h2.03v-1.76h-2.03c0-.17,0-.88,.13-1.64,.2-1.3,.53-1.55,.57-1.57,.15,0,.6,0,.91,1.06,.22,.73,.22,1.5,.22,1.5h1.76c0-.24-.02-2.45-1.18-3.61-.46-.47-1.06-.71-1.71-.71-.49,0-.93,.19-1.29,.56-1.11,1.12-1.17,3.77-1.16,4.42h-1.4v1.76h1.4v6.5h-2.46V4.91h-1.76V13.24H1.76V2.37H0V15H28.98l-2.71,2.71h3.05l3.59-3.59-3.59-3.59Zm-14.2-2.04c.85,0,1.58,.66,1.86,1.58h-3.71c.28-.92,1-1.58,1.86-1.58Z"/><circle class="ls_logo" cx="4.51" cy="3.3" r=".93"/></g></g></svg>