<svg xmlns:xlink="http://www.w3.org/1999/xlink" xmlns="http://www.w3.org/2000/svg" width="512" height="128.394" viewBox="0 0 512 128.394" fill="none">
  <path class="social_icon" fill-rule="evenodd" clip-rule="evenodd" d="m 111.27907,39.876717 -7.45069,0.0256 c -0.58624,0.0033 -1.11506,0.01317 -1.33741,0.52992 L 91.70533,65.305538 c -5.436703,13.056353 -10.980926,20.895797 -23.268915,22.754721 -0.411062,0.07058 -4.079173,0.635611 -5.86788,-1.43177 -1.303404,-1.499061 -1.222581,-4.009687 0.242469,-7.412655 L 76.200522,48.059932 c 0.08082,-0.09948 0.148114,-0.21504 0.198949,-0.337189 l 2.741757,-6.484839 c 0.18176,-0.423863 0.128,-0.58112 -0.141531,-0.959634 -0.272823,-0.382171 -0.720822,-0.282696 -1.202468,-0.279405 l -16.646567,0.05778 c -0.589531,0.0033 -1.118353,0.01609 -1.340707,0.536136 l -2.738466,6.317709 c -0.178468,0.427154 -0.124708,1.008273 0.148114,1.390078 0.269531,0.382171 0.720822,0.706194 1.202468,0.706194 l 6.928816,-0.0256 -13.065862,30.196269 c -0.831999,1.993506 -3.29106,8.789568 0.08411,13.656489 0.02341,0.02889 0.04389,0.0128 0.064,0.03877 0.602697,0.738377 4.321642,4.837664 12.267508,4.808773 4.998944,-0.01902 11.671761,-1.691793 20.29493,-6.866645 l 0.373759,-0.228206 0.161646,0.401554 c 0.08082,0.192366 2.038124,4.741481 6.477525,5.817046 3.52658,0.847359 8.569047,0.831268 16.319987,-6.895902 0.54565,-0.545645 0.53212,-1.409096 -0.0303,-1.939015 l -3.66482,-3.441368 c -0.29294,-0.276114 -0.69376,-0.423863 -1.10812,-0.394971 -0.41106,0.02596 -0.79177,0.218331 -1.04777,0.523336 -2.24987,2.728958 -4.473047,4.138053 -6.275285,3.974579 -0.714239,-0.06766 -1.290239,-0.507245 -1.569644,-1.175039 -0.535771,-1.371061 0.175177,-4.712955 1.896227,-8.9439 0.07753,-0.186148 0.107885,-0.388388 0.09435,-0.584411 L 97.680731,75.870648 112.62307,41.12563 c 0.18213,-0.43008 0.13129,-0.584411 -0.13787,-0.969508 -0.26953,-0.382171 -0.72083,-0.279405 -1.20613,-0.279405 z" fill="black"/>
  <path class="social_icon" fill-rule="evenodd" clip-rule="evenodd" d="m 43.242016,40.118088 -13.803726,0.04827 4.463136,-10.988826 c 0.178542,-0.426971 0.121271,-1.380424 -0.148187,-1.759231 -0.272859,-0.382024 -0.724223,-1.078673 -1.205905,-1.075455 l -7.46104,0.02567 c -0.589458,0.0032 -1.121681,0.982344 -1.340597,1.505644 l -4.894313,12.330594 -9.8795431,0.03547 c -0.5894943,0.0033 -1.1183167,0.01609 -1.3372696,0.536137 l -2.7452317,6.314782 c -0.1785416,0.43008 -0.1246353,1.011199 0.1448227,1.390079 0.269458,0.381805 0.7242233,0.709485 1.2059052,0.709485 L 14.970976,49.158536 2.683013,78.34324 c -0.00337,0.0066 -0.00337,-0.08338 -0.00337,-0.0768 l -0.4277866,1.001325 c -2.8597806,6.950393 -2.99451693,11.826823 -0.4109454,14.956969 2.0075683,2.426877 5.6656586,3.63739 10.876607,3.618008 8.771319,-0.03218 16.104359,-3.778557 21.793588,-11.123556 2.583623,-3.335676 4.230798,-6.699879 5.153495,-8.9311 C 39.83978,77.360932 39.78602,76.87307 39.513197,76.497482 39.243666,76.115311 38.792375,75.88418 38.31073,75.887471 l -8.010123,0.02889 c -0.56927,0.0033 -1.087999,0.327314 -1.317046,0.825051 -1.020634,2.189529 -4.8505,9.480037 -11.31113,11.245704 -2.694726,0.738376 -4.54736,0.581119 -5.497229,-0.456046 -1.532634,-1.723609 -0.555812,-5.534349 0.744411,-8.430072 l 12.655129,-29.980863 14.935391,-0.05486 c 0.589531,0 1.118353,-0.523336 1.337416,-1.046307 l 2.741758,-6.571514 c 0.182125,-0.427154 0.127999,-0.626102 -0.144823,-1.008273 -0.269531,-0.381806 -0.717531,-0.324023 -1.202468,-0.321097 z" fill="black"/>
  <path class="social_icon" fill-rule="evenodd" clip-rule="evenodd" d="m 204.50358,83.738618 c -0.30976,-0.298423 -0.7446,-0.44288 -1.18236,-0.397897 -0.43446,0.04498 -0.8287,0.276114 -1.06422,0.629028 -1.22624,1.826741 -3.77966,4.895813 -7.09083,4.908613 -0.896,0.0033 -1.18564,-0.388389 -1.26976,-0.497737 -0.55223,-0.751177 -0.448,-1.897324 0.36059,-4.048088 l 11.08882,-25.756135 c 0.0402,-0.08667 4.13622,-8.613295 1.12164,-15.020969 -1.31364,-2.78674 -3.77599,-4.729047 -7.31976,-5.778646 -2.35118,-0.693394 -4.72576,-1.043382 -7.05353,-1.033873 -7.36986,0.02596 -14.11692,2.895723 -19.00761,8.073866 l -0.45824,0.488229 -0.16165,-0.635611 c -0.77824,-3.085163 -4.05211,-6.449731 -8.80858,-6.915285 -2.72823,-0.269531 -9.76164,-0.385097 -16.12433,4.305184 l -1.09824,0.80896 1.33376,-2.991906 c 0.18871,-0.427154 0.14153,-0.834925 -0.128,-1.220022 -0.26917,-0.388388 -0.72412,-0.539428 -1.21234,-0.536137 l -16.59976,0.05778 c -0.58917,0.0033 -1.11835,0.263314 -1.33705,0.78336 l -2.73847,6.443148 c -0.18212,0.423862 -0.128,0.821759 0.14483,1.20393 0.26953,0.378514 0.72082,0.520045 1.20246,0.516754 l 7.04,-0.0256 -4.01847,9.637294 -0.0505,0.131657 c -0.0135,0.0256 -0.0238,0.06729 -0.034,0.09289 l -14.4201,34.260447 c -0.17847,0.427154 -0.12471,1.091657 0.14482,1.47017 0.27283,0.382172 0.72448,0.786651 1.20613,0.786651 l 7.46093,-0.02889 c 0.58953,0 1.11835,-0.520045 1.33705,-1.040091 l 10.61741,-25.297164 c 5.33905,-11.627875 14.16081,-19.290679 23.01291,-19.923364 3.008,-0.186149 3.80964,0.995473 4.06564,1.387153 1.56636,2.404569 -0.256,7.344998 -1.58317,9.890733 -0.0135,0.03218 -0.0304,0.05449 -0.0435,0.08667 l -14.00611,32.545981 c -0.18176,0.423862 -0.1313,0.905508 0.13494,1.287679 0.26954,0.381805 0.71754,0.612936 1.20247,0.616228 l 7.45764,0.01609 c 0.60635,0.0256 1.12165,-0.337188 1.344,-0.857233 l 13.25128,-30.716314 c 5.47364,-10.860241 14.02952,-15.746545 20.04551,-15.768854 2.69458,0.06437 4.43611,0.80896 5.32187,2.272912 1.91342,3.184637 -0.832,8.747878 -1.72105,10.375671 -0.0205,0.0384 -0.0373,0.07387 -0.0541,0.112274 L 184.14831,83.17359 c -0.93294,1.78505 -2.80576,6.940885 -0.74094,10.260104 1.36411,2.173438 4.032,3.492934 7.32964,3.614717 0.34669,0.01317 1.344,0.03218 1.984,0.03218 0.20187,-0.0033 0.36352,-0.0033 0.46482,-0.0095 9.5594,-0.699976 13.74975,-6.019286 15.10728,-8.272815 0.32658,-0.542719 0.23222,-1.223313 -0.22931,-1.663267 z" fill="black"/>
  <path class="social_icon" fill-rule="evenodd" clip-rule="evenodd" d="m 434.20485,86.793426 -3.66446,-3.441734 c -0.29257,-0.276114 -0.6912,-0.423496 -1.10811,-0.394605 -0.4096,0.0256 -0.78994,0.21504 -1.0496,0.526262 -1.5872,1.926216 -3.97531,4.179745 -6.27199,3.967997 -0.7168,-0.06437 -1.29097,-0.500663 -1.57257,-1.165165 -0.53395,-1.38057 0.17188,-4.725755 1.89805,-8.950483 0.0622,-0.153965 0.0951,-0.314514 0.0951,-0.471771 l 1.08617,-2.237803 14.91381,-34.681019 c 0.18286,-0.426788 0.13166,-0.584045 -0.13897,-0.966216 -0.27063,-0.381806 -0.72411,-0.282331 -1.20686,-0.27904 l -7.45325,0.0256 c -0.58514,0.0033 -1.11542,0.0095 -1.34217,0.526262 l -10.77393,24.87696 c -5.44182,13.055987 -10.98605,20.892506 -23.27769,22.75143 -0.41326,0.0768 -4.07771,0.645119 -5.86971,-1.428845 -1.30194,-1.502353 -1.21783,-4.009687 0.24503,-7.418873 L 402.1098,46.87319 c 0.0805,-0.09655 0.14629,-0.208823 0.19383,-0.32768 l 2.74651,-6.484839 c 0.17554,-0.426789 0.128,-0.580754 -0.14263,-0.962925 -0.27428,-0.382171 -0.72411,-0.279406 -1.20685,-0.279406 l -16.6473,0.06108 c -0.5888,0.0033 -1.11909,0.01609 -1.33852,0.536136 l -2.73919,6.314783 c -0.18286,0.426788 -0.12435,1.011199 0.14628,1.393004 0.27063,0.37888 0.72412,0.70656 1.2032,0.703268 l 6.9376,-0.0256 -13.06331,30.195903 c -0.84114,1.98729 -3.31702,8.770552 0.0768,13.659781 0.0183,0.02597 0.0402,0.0099 0.0622,0.03548 0.59978,0.741667 4.31177,4.841321 12.26239,4.812429 4.99931,-0.01609 11.67725,-1.688867 20.29713,-6.86701 l 0.37302,-0.231132 0.16458,0.40448 c 0.0841,0.195657 2.04799,4.744773 6.47679,5.817046 3.52548,0.847725 8.56868,0.831633 16.32181,-6.895536 0.54857,-0.546011 0.53395,-1.409462 -0.0292,-1.939016 z" fill="black"/>
  <path class="social_icon" fill-rule="evenodd" clip-rule="evenodd" d="m 445.01169,105.27624 c 0.0585,-0.32109 1.55429,-7.874915 10.34239,-10.16721 l 0.0841,-0.02231 0.0804,0.01609 c 3.22926,0.603428 9.79382,1.396296 17.55427,-0.02597 l 0.10972,-0.01609 c 0.5888,-0.03511 8.68936,-0.510171 13.19861,3.162328 1.80297,1.467244 2.80869,3.399672 3.00252,5.807532 0.004,0.0384 0.34011,3.6213 -2.99886,7.15556 -4.73965,5.01467 -14.13119,7.48982 -27.79426,7.39035 -6.66696,-0.0611 -10.10102,-2.42395 -11.8089,-4.40137 -2.05531,-2.36909 -2.5856,-5.02089 -1.77006,-8.89892 z m 28.71586,-35.444626 c -0.28526,0.0033 -0.57051,-0.0066 -0.8704,-0.02267 -0.0658,-0.0029 -6.20616,-0.320732 -8.85759,-5.043196 -1.36777,-2.289003 -1.8944,-5.043561 -1.52137,-7.964884 0.90331,-6.687079 8.01279,-12.359668 15.52821,-12.385268 0.26698,-0.0033 0.54126,0.0095 0.7936,0.02231 3.29143,0.18944 6.04891,1.457736 7.97988,3.662991 2.15406,2.481734 3.072,5.849228 2.57463,9.486619 -0.88503,6.609914 -8.03839,12.218503 -15.62696,12.244103 z M 511.4546,41.554612 c -0.42788,-1.01449 -1.73714,-3.47026 -4.68845,-4.385276 -4.58971,-1.396552 -8.72228,-0.256731 -11.95519,3.313003 -0.1792,0.20224 -0.35474,0.430079 -0.52297,0.657919 l -0.256,0.349988 -0.3072,-0.311222 c -3.68274,-3.765757 -8.76982,-6.003377 -14.30673,-6.305128 -0.51566,-0.03211 -1.04594,-0.04816 -1.57257,-0.04495 -12.24045,0.04495 -23.84089,9.547511 -25.32935,20.754449 -0.45348,3.396751 -0.17554,6.680862 0.82286,9.762733 l 0.0987,0.305006 -0.31451,0.115565 c -2.5856,0.953417 -6.45851,3.210237 -8.86125,6.436566 -0.29623,0.388388 -7.08022,9.627785 1.6128,17.541103 l 0.37668,0.34048 -0.46445,0.217965 c -5.76366,2.732249 -12.49645,8.394964 -11.82354,19.811097 l 0.004,0.0578 c 0,0.27611 0.0878,6.83446 5.7088,12.17023 4.34468,4.10916 11.10673,6.08658 20.68112,6.05147 4.61531,-0.0161 9.17576,-0.11264 14.27016,-1.11726 21.79289,-4.34688 24.95632,-16.79651 24.90146,-23.82699 -0.0366,-5.280917 -1.92366,-9.45737 -5.60639,-12.410876 -9.39154,-7.538096 -27.35906,-4.87643 -28.12341,-4.760864 l -0.0402,0.0062 -0.0439,-0.0033 c -10.25462,-0.580754 -11.8857,-3.25522 -12.5001,-4.266419 -0.78263,-1.271222 -0.70949,-2.866832 0.19017,-4.375402 0.92525,-1.541118 2.64777,-2.927905 4.86034,-3.910213 l 0.22674,-0.09947 0.1792,0.163474 c 3.60228,3.364568 8.31268,5.297 13.6265,5.589206 0.47177,0.02267 0.97646,0.03547 1.4592,0.03218 12.59153,-0.04169 24.06032,-9.290597 25.56706,-20.616758 0.53029,-3.987013 0.0219,-7.948427 -1.48114,-11.45416 l -0.0805,-0.186149 0.128,-0.157257 c 1.37509,-1.682284 2.64046,-2.74834 3.80343,-3.184637 0.76068,-0.314879 1.3568,-0.212114 1.71885,-0.07387 0.35109,0.134583 0.83383,0.529554 1.03863,1.184547 0.22308,0.718994 0.0768,1.617919 -0.44251,2.667884 -0.34012,0.683519 -0.0366,1.499061 0.67657,1.829666 l 3.78148,1.749576 c 0.34377,0.16384 0.74971,0.186148 1.11177,0.06437 0.36206,-0.122149 0.66194,-0.37888 0.83017,-0.712777 0.78263,-1.572936 2.45394,-5.602006 1.04594,-8.9695 z" fill="black"/>
  <path class="social_icon" fill-rule="evenodd" clip-rule="evenodd" d="m 335.04883,87.708077 c -3.83671,0.0128 -6.25188,-1.788341 -6.90541,-2.340204 -2.496,-2.115655 -4.8267,-6.619788 -3.21353,-12.372468 l 7.78458,-19.143296 c 2.72494,-5.528132 8.86235,-7.79117 10.68799,-8.356198 4.06894,-1.271587 9.01046,-0.767268 11.74893,1.200639 3.07529,2.211838 4.66176,6.532748 4.3487,11.861932 -0.67364,12.025771 -10.1321,25.088707 -20.65186,28.523493 -1.25623,0.411062 -2.53294,0.619519 -3.7994,0.626102 z m 26.16171,-48.648365 c -0.003,-0.0033 -0.01,-0.0095 -0.0168,-0.0128 -5.31529,-3.829867 -12.57764,-4.648517 -19.89045,-2.256821 -0.30976,0.09618 -0.56576,0.18944 -0.84554,0.295497 l -0.79469,0.311222 14.88821,-35.2651695 c 0.18213,-0.4269674 0.128,-1.0272941 -0.14482,-1.40611159 C 354.1369,0.34350267 353.68561,0 353.20396,0 l -17.69763,0.0642062 c -0.58953,0.0032102 -1.11835,0.4622829 -1.3407,0.9823537 l -2.73518,6.5394078 c -0.18176,0.426971 -0.12471,1.0818549 0.14482,1.4638797 0.27283,0.3788065 0.72448,0.7768861 1.20613,0.7768861 l 8.09069,-0.03211 -23.09045,54.5172695 c -0.44471,1.049965 -1.24635,3.120637 -2.56987,7.380473 l -0.0775,0.218332 c -2.77211,8.940974 1.28329,17.919983 6.50788,21.842996 3.14916,2.366169 7.12411,3.598625 11.48598,3.582899 2.71176,-0.0099 5.59505,-0.507245 8.56941,-1.476752 14.71669,-4.793047 26.94946,-20.953946 27.84545,-36.790091 0.48275,-8.552221 -2.55634,-15.849311 -8.33242,-20.010038 z" fill="black"/>
  <path class="social_icon" fill-rule="evenodd" clip-rule="evenodd" d="m 238.38551,88.049654 c -3.83305,0.0128 -6.26175,-1.78505 -6.91199,-2.333987 -2.49234,-2.112363 -4.8234,-6.619788 -3.20329,-12.379051 l 7.77106,-19.139639 c 2.73846,-5.534715 8.87222,-7.794827 10.69457,-8.356563 4.06893,-1.271222 9.00388,-0.767268 11.74234,1.200639 3.06871,2.208912 4.65517,6.529822 4.35529,11.855714 -0.68023,12.032354 -10.13869,25.094925 -20.65845,28.530076 -1.24965,0.407771 -2.52635,0.616228 -3.78953,0.622811 z m 26.15806,-48.646903 c -5.32224,-3.842849 -12.59446,-4.664718 -19.90398,-2.269986 -0.32659,0.09655 -0.58259,0.186514 -0.85578,0.295497 l -0.79798,0.317805 14.89479,-35.2715697 c 0.18213,-0.4269674 0.128,-1.0272978 -0.14482,-1.4093225 -0.26916,-0.37881385 -0.72411,-0.72231798 -1.20576,-0.72231798 l -17.70421,0.0642047 c -0.58624,0.003211 -1.11835,0.46228436 -1.33741,0.98235518 l -2.73518,6.5393712 c -0.18176,0.426971 -0.12471,1.0818916 0.14482,1.4639163 0.26953,0.3788065 0.72412,0.7768858 1.20613,0.7768858 l 8.0874,-0.03211 -23.08387,54.520743 c -1.10482,2.616318 -2.62034,7.543948 -2.63058,7.572839 -2.77906,8.979374 1.26318,17.958383 6.48411,21.884688 3.15611,2.366169 7.12776,3.589116 11.48634,3.573025 2.72823,-0.0095 5.61188,-0.513462 8.56941,-1.479679 14.71962,-4.796338 26.96043,-20.960163 27.86667,-36.796673 0.47141,-8.552221 -2.56658,-15.849311 -8.3401,-20.009673 z" fill="black"/>
  <path class="social_icon" fill-rule="evenodd" clip-rule="evenodd" d="m 297.3013,83.943418 c -0.30318,-0.285989 -0.72412,-0.427154 -1.14871,-0.39168 -0.42423,0.0384 -0.80823,0.250148 -1.05106,0.584045 -1.88599,2.549026 -3.6747,3.903631 -5.3354,4.016271 -1.11141,0.08009 -1.91671,-0.491154 -2.21623,-0.837851 -0.99035,-1.088365 -0.57966,-3.830122 0.32,-5.874829 L 321.1901,2.2570255 c 0.17846,-0.426971 0.12105,-1.0272978 -0.14812,-1.40611156 C 320.77245,0.4688855 320.3175,0.1253832 319.83586,0.1285938 l -16.3401,0.0577854 c -0.58953,0.00321 -1.11835,0.45907303 -1.34071,0.9791438 L 299.41,7.7048978 c -0.18212,0.4269711 -0.128,1.0818916 0.14482,1.4639164 0.26954,0.3820248 0.72083,0.7801044 1.20247,0.7768861 l 6.75364,-0.022455 -30.06973,71.3266887 c -0.007,0.01573 -0.0135,-0.04206 -0.0201,-0.02267 l -0.22602,0.561737 c -1.91999,4.940795 -1.06422,9.537819 0.63342,11.916789 1.83589,2.571334 4.79341,3.807447 9.03752,3.791356 7.808,-0.02889 12.68187,-5.772063 14.41681,-8.240998 0.38729,-0.551862 0.30647,-1.287313 -0.18871,-1.755793 z" fill="black"/>
  <path class="social_icon" fill-rule="evenodd" clip-rule="evenodd" d="m 316.8626,107.70605 -4.46317,-2.12188 c -1.04777,-0.49773 -2.32448,-0.0932 -2.85001,0.90515 l -1.1114,2.12845 c -0.87918,1.67899 -4.41929,7.16873 -13.09622,7.42875 -7.0367,0.20882 -14.50787,-3.72699 -16.56282,-6.53312 l -1.42482,-1.94852 c -0.32329,-0.44288 -0.81847,-0.74167 -1.37399,-0.83785 -0.5493,-0.0867 -1.1253,0.0256 -1.58317,0.3339 l -4.08942,2.71579 c -0.46482,0.305 -0.77824,0.76727 -0.87588,1.29719 -0.0976,0.52626 0.0303,1.05289 0.35035,1.49577 l 1.27671,1.89403 c 3.64471,4.97627 11.85681,9.12383 20.29822,10.04214 l 0.01,-0.10277 c 0,0 0.45824,0.0479 0.53211,0.0545 1.27671,0.13166 2.52964,0.30172 3.7493,0.26661 13.79692,-0.41765 19.6008,-9.38715 21.05232,-12.1673 l 1.11177,-2.13175 c 0.52553,-1.00133 0.10094,-2.22135 -0.94976,-2.71908 z" fill="black"/>
</svg>